<svg width="800" height="414" viewBox="0 0 800 414" xmlns="http://www.w3.org/2000/svg"><title>Untitled</title><g fill="#FFF" fill-rule="evenodd"><path d="M688.836 158.237c13.187 0 24.123-10.613 24.123-23.8 0-13.186-10.936-23.8-24.123-23.8-13.188 0-24.124 10.614-24.124 23.8 0 12.865 10.936 23.8 24.124 23.8zm-368.282 0c13.188 0 24.123-10.613 24.123-23.8 0-13.186-10.935-23.8-24.123-23.8-13.187 0-24.123 10.614-24.123 23.8 0 12.865 10.936 23.8 24.123 23.8zm284.333 19.619c-7.72 0-14.474 3.86-14.474 9.327 0 3.86 2.251 7.076 2.251 17.368v120.93c0 20.583-6.754 38.272-27.983 38.272-21.871 0-26.696-15.76-27.34-38.273V201.656c0-12.865-11.579-23.8-30.234-23.8-7.72 0-14.474 3.86-14.474 9.327 0 3.86 2.252 7.076 2.252 17.368v120.93c0 20.583-6.755 38.272-27.983 38.272-24.123 0-27.34-18.975-27.34-38.273V201.656c0-12.865-11.579-23.8-30.234-23.8-7.72 0-14.474 3.86-14.474 9.327 0 3.86 2.251 7.076 2.251 17.368v103.24c-2.573 24.122-22.193 55.962-43.1 55.962-14.474 0-14.474-19.94-14.474-24.765V204.23c0-10.292 2.252-13.508 2.252-17.367 0-5.468-6.755-9.327-14.474-9.327-18.334 0-30.235 10.935-30.235 23.8v147.302c0 27.66 17.369 50.816 46.96 50.816 27.34 0 45.995-15.76 59.182-35.7 7.72 19.297 24.767 35.7 62.078 35.7 21.228 0 43.421-11.9 50.82-26.051 7.719 14.151 26.696 26.051 50.819 26.051 57.574 0 68.188-40.524 68.188-73.973V201.656c0-13.186-11.9-23.8-30.234-23.8zm161.465 127.362c-5.147 23.8-15.118 58.214-37.311 58.214-14.474 0-14.474-19.94-14.474-24.765V201.335c0-12.865-11.58-23.8-30.234-23.8-7.72 0-14.474 3.86-14.474 9.327 0 3.86 2.251 7.075 2.251 17.367v144.086c0 27.66 17.369 50.816 46.96 50.816 47.925 0 69.797-48.564 79.767-84.264 4.182-17.046-25.731-42.454-32.485-9.649z"/><path d="M649.595 66.897c-2.895-1.93-6.754-1.93-13.83-6.11l-.322-.322c-64.007-41.168-127.05-55.32-206.495-59.5-183.658-9.97-281.438 80.083-323.251 133.15 0 0-.965-3.215-2.252-5.788 0-.322-.322-.644-.322-.965 0-.322-.321-.322-.321-.643v-.322c0-.322-.322-.643-.322-.965-.643-1.286-1.286-2.251-1.93-3.538l-.321-.321c-.644-.965-.965-1.93-1.609-2.573a37.023 37.023 0 0 0-4.503-5.468C83.825 103.24 69.03 98.094 53.27 100.024c-15.44 1.93-29.591 9.327-40.527 21.549-9.006 10.292-13.51 23.8-11.901 38.273 1.286 12.543 6.754 24.764 15.117 34.413l.322.322c9.97 11.256 25.088 16.402 40.205 15.116 8.041-.643 17.69-2.573 27.983-7.076h-.322l42.136 168.851c8.04 28.946 26.374 49.208 61.434 39.881 11.257-2.895 22.193-7.719 31.842-14.473 12.544-8.684 22.837-20.262 30.235-33.448l3.86-7.72c5.789-13.829 5.789-28.302 4.502-43.097-.321-6.11-.643-11.9-.643-18.01-.322-16.403-1.286-32.806-1.286-49.53 0-6.11.321-12.222.964-18.654 0-1.608.322-3.216.644-4.824.643-5.146 2.573-13.508 4.181-18.654l3.217-10.614c.643-2.573 2.573-5.467 1.608-8.04-1.608-4.503-6.111-7.398-10.614-9.006-9.328-3.216-20.264-3.537-28.948 2.573-.965.644-2.574 2.252-3.217 3.217-1.93 2.573-3.538 5.467-4.824 8.362-6.755 14.151-6.433 30.232-6.433 45.67 0 12.865-.322 25.73.965 38.594.643 8.04 1.608 16.081 1.608 24.122.643 16.403 1.286 33.127-3.538 49.208-.965 2.894-1.93 5.79-3.538 8.362-4.503 8.684-13.51 16.081-23.159 18.654-9.97 2.573-13.83-3.216-16.725-13.508 0 0-25.732-91.34-35.702-127.04-1.287-4.181-1.93-7.398-2.895-9.649-.322-1.286-.644-2.251-.965-2.894 0-.322-.322-.644-.322-.965v-.322l-10.614-44.062C259.442 6.432 471.726 45.992 471.726 45.992c51.463 7.397 89.417 17.689 132.839 44.705.322 0 3.86 2.573 5.468 3.538 0 0 5.146 2.573 8.041 3.216.322 0 .965.322 1.287.322 12.222 2.894 23.158-2.573 30.556-13.508 3.86-6.754 4.181-14.473-.322-17.368zM105.053 188.148c-.321.322-.965.643-1.286.965.321-.322.643-.643 1.286-.965zm-4.181 3.216c-.322.322-.965.644-1.287.965.322-.321.644-.643 1.287-.965zm12.222-10.935l-1.286 1.287 1.286-1.287zm-3.86 3.86l-1.286 1.286 1.287-1.286zM51.018 168.85c-3.216.322-6.754-.322-9.65-1.93-1.607-.965-3.216-2.573-4.502-4.502-2.573-3.86-3.86-9.006-2.573-14.473.965-5.79 5.146-10.292 10.614-12.544 1.608-.643 2.895-1.286 5.468-1.608 1.608 0 3.216 0 4.503.322.322 0 .965.322 1.286.322h.964c.322 0 .965.321 1.287.643.322 0 .322.321.643.321.322.322.644.322.965.644.643.321.965.643 1.608.964l.644.644c.321.321.643.643.965.643l.321.322.644.643.321.321.643.644c0 .321.322.321.322.643l.965 1.93 2.895 6.754 3.216 9.005.965 2.895c-7.076 3.86-14.474 6.754-22.515 7.397zm36.99 30.554c-.322 0-.644.322-.644.322.322 0 .322 0 .643-.322zm8.684-4.824c-.322.321-.644.321-.965.643 0-.322.321-.643.965-.643zm-4.503 2.573c-.322.321-.644.321-.965.643.321-.322.643-.643.965-.643z"/></g></svg>