<?xml version="1.0" encoding="UTF-8"?>
<svg width="250px" height="129px" viewBox="0 0 250 129" version="1.1" xmlns="http://www.w3.org/2000/svg" xmlns:xlink="http://www.w3.org/1999/xlink">
    <!-- Generator: Sketch 39.1 (31720) - http://www.bohemiancoding.com/sketch -->
    <title>Untitled 3</title>
    <desc>Created with Sketch.</desc>
    <defs>
        <linearGradient x1="0.0433333333%" y1="49.6047297%" x2="100.242667%" y2="49.6047297%" id="linearGradient-1">
            <stop stop-color="#0080AC" offset="28.71%"></stop>
            <stop stop-color="#0080AC" offset="54.2%"></stop>
        </linearGradient>
        <linearGradient x1="0.0796384396%" y1="49.9882609%" x2="99.9781161%" y2="49.9882609%" id="linearGradient-2">
            <stop stop-color="#0080AC" offset="28.71%"></stop>
            <stop stop-color="#0080AC" offset="54.2%"></stop>
        </linearGradient>
        <linearGradient x1="-0.139468856%" y1="50.1034833%" x2="99.8800868%" y2="50.1034833%" id="linearGradient-3">
            <stop stop-color="#0080AC" offset="28.71%"></stop>
            <stop stop-color="#0080AC" offset="54.2%"></stop>
        </linearGradient>
        <linearGradient x1="-0.0572642483%" y1="49.8887103%" x2="100.006409%" y2="49.8887103%" id="linearGradient-4">
            <stop stop-color="#0080AC" offset="28.71%"></stop>
            <stop stop-color="#0080AC" offset="54.2%"></stop>
        </linearGradient>
    </defs>
    <g id="Page-1" stroke="none" stroke-width="1" fill="none" fill-rule="evenodd">
        <g id="Viwi" transform="translate(-12.000000, -316.000000)">
            <g id="Group" transform="translate(12.000000, 316.000000)">
                <path d="M214.8,49.2 C218.9,49.2 222.3,45.9 222.3,41.8 C222.3,37.7 218.9,34.4 214.8,34.4 C210.7,34.4 207.3,37.7 207.3,41.8 C207.3,45.8 210.7,49.2 214.8,49.2 L214.8,49.2 Z" id="Shape" fill="url(#linearGradient-1)"></path>
                <path d="M100.3,49.2 C104.4,49.2 107.8,45.9 107.8,41.8 C107.8,37.7 104.4,34.4 100.3,34.4 C96.2,34.4 92.8,37.7 92.8,41.8 C92.8,45.8 96.2,49.2 100.3,49.2 L100.3,49.2 Z" id="Shape" fill="url(#linearGradient-1)"></path>
                <path d="M188.7,55.3 C186.3,55.3 184.2,56.5 184.2,58.2 C184.2,59.4 184.9,60.4 184.9,63.6 L184.9,101.2 C184.9,107.6 182.8,113.1 176.2,113.1 C169.4,113.1 167.9,108.2 167.7,101.2 L167.7,62.7 C167.7,58.7 164.1,55.3 158.3,55.3 C155.9,55.3 153.8,56.5 153.8,58.2 C153.8,59.4 154.5,60.4 154.5,63.6 L154.5,101.2 C154.5,107.6 152.4,113.1 145.8,113.1 C138.3,113.1 137.3,107.2 137.3,101.2 L137.3,62.7 C137.3,58.7 133.7,55.3 127.9,55.3 C125.5,55.3 123.4,56.5 123.4,58.2 C123.4,59.4 124.1,60.4 124.1,63.6 L124.1,95.7 C123.3,103.2 117.2,113.1 110.7,113.1 C106.2,113.1 106.2,106.9 106.2,105.4 L106.2,103 L106.2,103 L106.2,63.5 C106.2,60.3 106.9,59.3 106.9,58.1 C106.9,56.4 104.8,55.2 102.4,55.2 C96.7,55.2 93,58.6 93,62.6 L93,94.8 L93,94.8 L93,108.4 C93,117 98.4,124.2 107.6,124.2 C116.1,124.2 121.9,119.3 126,113.1 C128.4,119.1 133.7,124.2 145.3,124.2 C151.9,124.2 158.8,120.5 161.1,116.1 C163.5,120.5 169.4,124.2 176.9,124.2 C194.8,124.2 198.1,111.6 198.1,101.2 L198.1,62.7 C198.1,58.6 194.4,55.3 188.7,55.3 L188.7,55.3 Z" id="Shape" fill="url(#linearGradient-2)"></path>
                <path d="M238.9,94.9 C237.3,102.3 234.2,113 227.3,113 C222.8,113 222.8,106.8 222.8,105.3 L222.8,62.6 C222.8,58.6 219.2,55.2 213.4,55.2 C211,55.2 208.9,56.4 208.9,58.1 C208.9,59.3 209.6,60.3 209.6,63.5 L209.6,108.3 C209.6,116.9 215,124.1 224.2,124.1 C239.1,124.1 245.9,109 249,97.9 C250.3,92.6 241,84.7 238.9,94.9 L238.9,94.9 Z" id="Shape" fill="url(#linearGradient-3)"></path>
                <path d="M202.6,20.8 C201.7,20.2 200.5,20.2 198.3,18.9 L198.2,18.8 C178.3,6 158.7,1.6 134,0.3 C76.9,-2.8 46.5,25.2 33.5,41.7 C33.5,41.7 33.2,40.7 32.8,39.9 L32.8,39.9 C32.8,39.8 32.7,39.7 32.7,39.6 L32.7,39.6 C32.7,39.5 32.6,39.5 32.6,39.4 L32.6,39.4 L32.6,39.3 L32.6,39.3 C32.6,39.2 32.5,39.1 32.5,39 C32.3,38.6 32.1,38.3 31.9,37.9 L31.8,37.8 L31.8,37.8 L31.8,37.8 C31.6,37.5 31.5,37.2 31.3,37 L31.3,37 L31.3,37 L31.3,37 L31.3,37 C30.9,36.4 30.4,35.8 29.9,35.3 L29.9,35.3 L29.9,35.3 L29.9,35.3 L29.9,35.3 L29.9,35.3 C26.7,32.1 22.1,30.5 17.2,31.1 C12.4,31.7 8,34 4.6,37.8 C1.8,41 0.4,45.2 0.9,49.7 C1.3,53.6 3,57.4 5.6,60.4 C5.6,60.4 5.6,60.4 5.7,60.5 C8.8,64 13.5,65.6 18.2,65.2 C20.7,65 23.7,64.4 26.9,63 C26.9,63 26.9,63 26.8,63 L26.8,63 L39.9,115.5 C42.4,124.5 48.1,130.8 59,127.9 C62.5,127 65.9,125.5 68.9,123.4 C72.8,120.7 76,117.1 78.3,113 L79.5,110.6 C81.3,106.3 81.3,101.8 80.9,97.2 C80.8,95.3 80.7,93.5 80.7,91.6 C80.6,86.5 80.3,81.4 80.3,76.2 C80.3,74.3 80.4,72.4 80.6,70.4 C80.6,69.9 80.7,69.4 80.8,68.9 C81,67.3 81.6,64.7 82.1,63.1 L83.1,59.8 C83.3,59 83.9,58.1 83.6,57.3 C83.1,55.9 81.7,55 80.3,54.5 C77.4,53.5 74,53.4 71.3,55.3 C71,55.5 70.5,56 70.3,56.3 C69.7,57.1 69.2,58 68.8,58.9 C66.7,63.3 66.8,68.3 66.8,73.1 C66.8,77.1 66.7,81.1 67.1,85.1 C67.3,87.6 67.6,90.1 67.6,92.6 C67.8,97.7 68,102.9 66.5,107.9 C66.2,108.8 65.9,109.7 65.4,110.5 C64,113.2 61.2,115.5 58.2,116.3 C55.1,117.1 53.9,115.3 53,112.1 C53,112.1 45,83.7 41.9,72.6 C41.5,71.3 41.3,70.3 41,69.6 C40.9,69.2 40.8,68.9 40.7,68.7 C40.7,68.6 40.6,68.5 40.6,68.4 L40.6,68.3 L37.3,54.6 C81.3,2 147.3,14.3 147.3,14.3 C163.3,16.6 175.1,19.8 188.6,28.2 C188.7,28.2 189.8,29 190.3,29.3 C190.3,29.3 191.9,30.1 192.8,30.3 C192.9,30.3 193.1,30.4 193.2,30.4 C197,31.3 200.4,29.6 202.7,26.2 C203.9,24.1 204,21.7 202.6,20.8 L202.6,20.8 Z M33.3,58.5 C33.2,58.6 33,58.7 32.9,58.8 C33,58.7 33.1,58.6 33.3,58.5 L33.3,58.5 Z M32,59.5 C31.9,59.6 31.7,59.7 31.6,59.8 C31.7,59.7 31.8,59.6 32,59.5 L32,59.5 Z M35.8,56.1 C35.7,56.2 35.5,56.4 35.4,56.5 C35.6,56.3 35.7,56.2 35.8,56.1 L35.8,56.1 Z M34.6,57.3 C34.5,57.4 34.3,57.6 34.2,57.7 C34.3,57.6 34.4,57.5 34.6,57.3 L34.6,57.3 Z M16.5,52.5 C15.5,52.6 14.4,52.4 13.5,51.9 C13,51.6 12.5,51.1 12.1,50.5 C11.3,49.3 10.9,47.7 11.3,46 C11.6,44.2 12.9,42.8 14.6,42.1 C15.1,41.9 15.5,41.7 16.3,41.6 C16.8,41.6 17.3,41.6 17.7,41.7 C17.8,41.7 18,41.8 18.1,41.8 L18.2,41.8 L18.4,41.8 C18.5,41.8 18.7,41.9 18.8,42 C18.9,42 18.9,42.1 19,42.1 L19,42.1 C19.1,42.2 19.2,42.2 19.3,42.3 C19.5,42.4 19.6,42.5 19.8,42.6 C19.9,42.7 19.9,42.7 20,42.8 C20.1,42.9 20.2,43 20.3,43 C20.3,43 20.3,43 20.4,43.1 C20.5,43.2 20.5,43.2 20.6,43.3 L20.7,43.4 C20.8,43.5 20.8,43.5 20.9,43.6 C20.9,43.7 21,43.7 21,43.8 C21.1,44 21.2,44.2 21.3,44.4 C21.6,45.1 21.9,45.8 22.2,46.5 L22.2,46.5 L22.2,46.5 L23.2,49.3 C23.3,49.6 23.4,49.9 23.5,50.2 L23.5,50.2 C21.3,51.4 19,52.3 16.5,52.5 L16.5,52.5 Z M28,62 C27.9,62 27.8,62.1 27.8,62.1 C27.9,62.1 27.9,62.1 28,62 L28,62 Z M30.7,60.5 C30.6,60.6 30.5,60.6 30.4,60.7 C30.4,60.6 30.5,60.5 30.7,60.5 L30.7,60.5 Z M29.3,61.3 C29.2,61.4 29.1,61.4 29,61.5 C29.1,61.4 29.2,61.3 29.3,61.3 L29.3,61.3 Z" id="Shape" fill="url(#linearGradient-4)"></path>
            </g>
        </g>
    </g>
</svg>