<svg width="250" height="129" viewBox="0 0 250 129" xmlns="http://www.w3.org/2000/svg"><title>Untitled 3</title><defs><linearGradient x1=".043%" y1="49.605%" x2="100.243%" y2="49.605%" id="a"><stop stop-color="#0080AC" offset="28.71%"/><stop stop-color="#0080AC" offset="54.2%"/></linearGradient><linearGradient x1=".08%" y1="49.988%" x2="99.978%" y2="49.988%" id="b"><stop stop-color="#0080AC" offset="28.71%"/><stop stop-color="#0080AC" offset="54.2%"/></linearGradient><linearGradient x1="-.139%" y1="50.103%" x2="99.88%" y2="50.103%" id="c"><stop stop-color="#0080AC" offset="28.71%"/><stop stop-color="#0080AC" offset="54.2%"/></linearGradient><linearGradient x1="-.057%" y1="49.889%" x2="100.006%" y2="49.889%" id="d"><stop stop-color="#0080AC" offset="28.71%"/><stop stop-color="#0080AC" offset="54.2%"/></linearGradient></defs><g fill="none" fill-rule="evenodd"><path d="M214.8 49.2c4.1 0 7.5-3.3 7.5-7.4 0-4.1-3.4-7.4-7.5-7.4s-7.5 3.3-7.5 7.4c0 4 3.4 7.4 7.5 7.4zm-114.5 0c4.1 0 7.5-3.3 7.5-7.4 0-4.1-3.4-7.4-7.5-7.4s-7.5 3.3-7.5 7.4c0 4 3.4 7.4 7.5 7.4z" fill="url(#a)"/><path d="M188.7 55.3c-2.4 0-4.5 1.2-4.5 2.9 0 1.2.7 2.2.7 5.4v37.6c0 6.4-2.1 11.9-8.7 11.9-6.8 0-8.3-4.9-8.5-11.9V62.7c0-4-3.6-7.4-9.4-7.4-2.4 0-4.5 1.2-4.5 2.9 0 1.2.7 2.2.7 5.4v37.6c0 6.4-2.1 11.9-8.7 11.9-7.5 0-8.5-5.9-8.5-11.9V62.7c0-4-3.6-7.4-9.4-7.4-2.4 0-4.5 1.2-4.5 2.9 0 1.2.7 2.2.7 5.4v32.1c-.8 7.5-6.9 17.4-13.4 17.4-4.5 0-4.5-6.2-4.5-7.7V63.5c0-3.2.7-4.2.7-5.4 0-1.7-2.1-2.9-4.5-2.9-5.7 0-9.4 3.4-9.4 7.4v45.8c0 8.6 5.4 15.8 14.6 15.8 8.5 0 14.3-4.9 18.4-11.1 2.4 6 7.7 11.1 19.3 11.1 6.6 0 13.5-3.7 15.8-8.1 2.4 4.4 8.3 8.1 15.8 8.1 17.9 0 21.2-12.6 21.2-23V62.7c0-4.1-3.7-7.4-9.4-7.4z" fill="url(#b)"/><path d="M238.9 94.9c-1.6 7.4-4.7 18.1-11.6 18.1-4.5 0-4.5-6.2-4.5-7.7V62.6c0-4-3.6-7.4-9.4-7.4-2.4 0-4.5 1.2-4.5 2.9 0 1.2.7 2.2.7 5.4v44.8c0 8.6 5.4 15.8 14.6 15.8 14.9 0 21.7-15.1 24.8-26.2 1.3-5.3-8-13.2-10.1-3z" fill="url(#c)"/><path d="M202.6 20.8c-.9-.6-2.1-.6-4.3-1.9l-.1-.1C178.3 6 158.7 1.6 134 .3 76.9-2.8 46.5 25.2 33.5 41.7c0 0-.3-1-.7-1.8 0-.1-.1-.2-.1-.3 0-.1-.1-.1-.1-.2v-.1c0-.1-.1-.2-.1-.3-.2-.4-.4-.7-.6-1.1l-.1-.1c-.2-.3-.3-.6-.5-.8-.4-.6-.9-1.2-1.4-1.7-3.2-3.2-7.8-4.8-12.7-4.2-4.8.6-9.2 2.9-12.6 6.7C1.8 41 .4 45.2.9 49.7c.4 3.9 2.1 7.7 4.7 10.7l.1.1c3.1 3.5 7.8 5.1 12.5 4.7 2.5-.2 5.5-.8 8.7-2.2h-.1l13.1 52.5c2.5 9 8.2 15.3 19.1 12.4 3.5-.9 6.9-2.4 9.9-4.5 3.9-2.7 7.1-6.3 9.4-10.4l1.2-2.4c1.8-4.3 1.8-8.8 1.4-13.4-.1-1.9-.2-3.7-.2-5.6-.1-5.1-.4-10.2-.4-15.4 0-1.9.1-3.8.3-5.8 0-.5.1-1 .2-1.5.2-1.6.8-4.2 1.3-5.8l1-3.3c.2-.8.8-1.7.5-2.5-.5-1.4-1.9-2.3-3.3-2.8-2.9-1-6.3-1.1-9 .8-.3.2-.8.7-1 1-.6.8-1.1 1.7-1.5 2.6-2.1 4.4-2 9.4-2 14.2 0 4-.1 8 .3 12 .2 2.5.5 5 .5 7.5.2 5.1.4 10.3-1.1 15.3-.3.9-.6 1.8-1.1 2.6-1.4 2.7-4.2 5-7.2 5.8-3.1.8-4.3-1-5.2-4.2 0 0-8-28.4-11.1-39.5-.4-1.3-.6-2.3-.9-3-.1-.4-.2-.7-.3-.9 0-.1-.1-.2-.1-.3v-.1l-3.3-13.7c44-52.6 110-40.3 110-40.3 16 2.3 27.8 5.5 41.3 13.9.1 0 1.2.8 1.7 1.1 0 0 1.6.8 2.5 1 .1 0 .3.1.4.1 3.8.9 7.2-.8 9.5-4.2 1.2-2.1 1.3-4.5-.1-5.4zM33.3 58.5c-.1.1-.3.2-.4.3.1-.1.2-.2.4-.3zm-1.3 1c-.1.1-.3.2-.4.3.1-.1.2-.2.4-.3zm3.8-3.4l-.4.4.4-.4zm-1.2 1.2l-.4.4.4-.4zm-18.1-4.8c-1 .1-2.1-.1-3-.6-.5-.3-1-.8-1.4-1.4-.8-1.2-1.2-2.8-.8-4.5.3-1.8 1.6-3.2 3.3-3.9.5-.2.9-.4 1.7-.5.5 0 1 0 1.4.1.1 0 .3.1.4.1h.3c.1 0 .3.1.4.2.1 0 .1.1.2.1.1.1.2.1.3.2.2.1.3.2.5.3l.2.2c.1.1.2.2.3.2l.1.1.2.2.1.1.2.2c0 .1.1.1.1.2l.3.6.9 2.1 1 2.8.3.9c-2.2 1.2-4.5 2.1-7 2.3zM28 62c-.1 0-.2.1-.2.1.1 0 .1 0 .2-.1zm2.7-1.5c-.1.1-.2.1-.3.2 0-.1.1-.2.3-.2zm-1.4.8c-.1.1-.2.1-.3.2.1-.1.2-.2.3-.2z" fill="url(#d)"/></g></svg>