<?xml version="1.0" encoding="UTF-8"?>
<svg width="800px" height="414px" viewBox="0 0 800 414" version="1.1" xmlns="http://www.w3.org/2000/svg" xmlns:xlink="http://www.w3.org/1999/xlink">
    <!-- Generator: Sketch 40 (33762) - http://www.bohemiancoding.com/sketch -->
    <title>Untitled</title>
    <desc>Created with Sketch.</desc>
    <defs></defs>
    <g id="Page-1" stroke="none" stroke-width="1" fill="none" fill-rule="evenodd">
        <g id="logo" fill="#FFFFFF">
            <g id="Page-1">
                <g id="Viwi">
                    <g id="Group">
                        <path d="M688.835533,158.237454 C702.022901,158.237454 712.958768,147.623966 712.958768,134.437512 C712.958768,121.251057 702.022901,110.63757 688.835533,110.63757 C675.648164,110.63757 664.712298,121.251057 664.712298,134.437512 C664.712298,147.302345 675.648164,158.237454 688.835533,158.237454 L688.835533,158.237454 L688.835533,158.237454 Z" id="Shape"></path>
                        <path d="M320.554146,158.237454 C333.741515,158.237454 344.677381,147.623966 344.677381,134.437512 C344.677381,121.251057 333.741515,110.63757 320.554146,110.63757 C307.366778,110.63757 296.430911,121.251057 296.430911,134.437512 C296.430911,147.302345 307.366778,158.237454 320.554146,158.237454 L320.554146,158.237454 L320.554146,158.237454 Z" id="Shape"></path>
                        <path d="M604.886675,177.856325 C597.16724,177.856325 590.412734,181.715776 590.412734,187.18333 C590.412734,191.04278 592.664236,194.258988 592.664236,204.550855 L592.664236,325.480292 C592.664236,346.064026 585.90973,363.753172 564.681284,363.753172 C542.809551,363.753172 537.984904,347.993751 537.341617,325.480292 L537.341617,201.656268 C537.341617,188.791434 525.762465,177.856325 507.107163,177.856325 C499.387728,177.856325 492.633222,181.715776 492.633222,187.18333 C492.633222,191.04278 494.884724,194.258988 494.884724,204.550855 L494.884724,325.480292 C494.884724,346.064026 488.130218,363.753172 466.901772,363.753172 C442.778537,363.753172 439.562105,344.777542 439.562105,325.480292 L439.562105,201.656268 C439.562105,188.791434 427.982953,177.856325 409.327651,177.856325 C401.608216,177.856325 394.85371,181.715776 394.85371,187.18333 C394.85371,191.04278 397.105212,194.258988 397.105212,204.550855 L397.105212,307.791145 C394.532067,331.912709 374.911836,363.753172 354.005032,363.753172 C339.531091,363.753172 339.531091,343.81268 339.531091,338.988367 L339.531091,331.269467 L339.531091,331.269467 L339.531091,204.229234 C339.531091,193.937368 341.782593,190.721159 341.782593,186.861709 C341.782593,181.394155 335.028087,177.534705 327.308652,177.534705 C308.974994,177.534705 297.074198,188.469813 297.074198,201.334647 L297.074198,304.896558 L297.074198,304.896558 L297.074198,348.636992 C297.074198,376.296385 314.442927,399.453085 344.034095,399.453085 C371.373761,399.453085 390.029063,383.693664 403.216431,363.753172 C410.935866,383.050422 427.982953,399.453085 465.293556,399.453085 C486.522003,399.453085 508.715379,387.553114 516.113171,373.401797 C523.832606,387.553114 542.809551,399.453085 566.932786,399.453085 C624.506906,399.453085 635.12113,358.928859 635.12113,325.480292 L635.12113,201.656268 C635.12113,188.469813 623.220334,177.856325 604.886675,177.856325 L604.886675,177.856325 L604.886675,177.856325 Z" id="Shape"></path>
                        <path d="M766.351528,305.218179 C761.205237,329.018121 751.2343,363.431551 729.040924,363.431551 C714.566983,363.431551 714.566983,343.491059 714.566983,338.666746 L714.566983,201.334647 C714.566983,188.469813 702.987831,177.534705 684.332529,177.534705 C676.613094,177.534705 669.858588,181.394155 669.858588,186.861709 C669.858588,190.721159 672.11009,193.937368 672.11009,204.229234 L672.11009,348.315372 C672.11009,375.974764 689.478819,399.131465 719.069987,399.131465 C766.994814,399.131465 788.866547,350.566717 798.837484,314.866804 C803.018845,297.820899 773.106033,272.412853 766.351528,305.218179 L766.351528,305.218179 L766.351528,305.218179 Z" id="Shape"></path>
                        <path d="M649.595071,66.8971351 C646.700282,64.96741 642.840565,64.96741 635.764416,60.7863391 L635.442773,60.4647182 C571.435789,19.2972505 508.393736,5.14593347 428.947882,0.964862525 C245.289653,-9.00538357 147.510141,81.0484521 105.696534,134.115891 C105.696534,134.115891 104.731605,130.899683 103.445032,128.326716 L103.445032,128.326716 C103.445032,128.005095 103.123389,127.683474 103.123389,127.361853 L103.123389,127.361853 C103.123389,127.040232 102.801746,127.040232 102.801746,126.718612 L102.801746,126.718612 L102.801746,126.396991 L102.801746,126.396991 C102.801746,126.07537 102.480103,125.753749 102.480103,125.432128 C101.836816,124.145645 101.19353,123.180782 100.550244,121.894299 L100.228601,121.572678 L100.228601,121.572678 L100.228601,121.572678 C99.5853145,120.607816 99.2636714,119.642953 98.6203851,118.999711 L98.6203851,118.999711 L98.6203851,118.999711 L98.6203851,118.999711 L98.6203851,118.999711 C97.3338126,117.069986 95.7255969,115.140261 94.1173813,113.532157 L94.1173813,113.532157 L94.1173813,113.532157 L94.1173813,113.532157 L94.1173813,113.532157 L94.1173813,113.532157 C83.824801,103.24029 69.0292169,98.0943567 53.2687035,100.024082 C37.8298331,101.953807 23.6775353,109.351086 12.7416688,121.572678 C3.7356611,131.864545 -0.767342747,145.37262 0.840872914,159.845558 C2.12744544,172.388771 7.59537869,184.610363 15.9581001,194.258988 C15.9581001,194.258988 15.9581001,194.258988 16.2797433,194.580609 C26.2506804,205.837339 41.3679076,210.983272 56.4851348,209.696789 C64.5262131,209.053547 74.1755071,207.123822 84.4680873,202.62113 C84.4680873,202.62113 84.4680873,202.62113 84.1464442,202.62113 L84.1464442,202.62113 L126.281694,371.472072 C134.322773,400.417948 152.656431,420.680061 187.715533,411.353056 C198.973042,408.458469 209.908909,403.634156 219.558203,396.880119 C232.102285,388.196356 242.394865,376.618006 249.792657,363.431551 L253.652375,355.712651 C259.441951,341.882955 259.441951,327.410017 258.155379,312.615458 C257.833736,306.504662 257.512092,300.715487 257.512092,294.604691 C257.190449,278.202028 256.22552,261.799365 256.22552,245.075081 C256.22552,238.964285 256.547163,232.853489 257.190449,226.421073 C257.190449,224.812968 257.512092,223.204864 257.833736,221.59676 C258.477022,216.450826 260.406881,208.088685 262.015096,202.942751 L265.231528,192.329263 C265.874814,189.756297 267.804673,186.861709 266.839743,184.288742 C265.231528,179.78605 260.728524,176.891463 256.22552,175.283359 C246.897869,172.06715 235.962003,171.745529 227.277638,177.856325 C226.312709,178.499567 224.704493,180.107671 224.061207,181.072534 C222.131348,183.645501 220.523132,186.540088 219.23656,189.434676 C212.482054,203.585993 212.803697,219.667035 212.803697,235.104835 C212.803697,247.969669 212.482054,260.834503 213.768626,273.699336 C214.411913,281.739857 215.376842,289.780378 215.376842,297.820899 C216.020128,314.223562 216.663415,330.947846 211.838768,347.028888 C210.873838,349.923476 209.908909,352.818063 208.300693,355.39103 C203.797689,364.074793 194.791682,371.472072 185.142388,374.045039 C175.171451,376.618006 171.311733,370.82883 168.416945,360.536964 C168.416945,360.536964 142.685494,269.196644 132.714557,233.496731 C131.427985,229.31566 130.784698,226.099452 129.819769,223.848106 C129.498126,222.561622 129.176483,221.59676 128.85484,220.953518 C128.85484,220.631897 128.533196,220.310277 128.533196,219.988656 L128.533196,219.667035 L117.918973,175.60498 C259.441951,6.43241683 471.726418,45.9917804 471.726418,45.9917804 C523.18932,53.3890597 561.143209,63.6809267 604.565032,90.6970774 C604.886675,90.6970774 608.42475,93.2700441 610.032965,94.2349066 C610.032965,94.2349066 615.179255,96.8078733 618.074044,97.451115 C618.395687,97.451115 619.038973,97.7727359 619.360616,97.7727359 C631.583055,100.667323 642.518922,95.1997691 649.916714,84.2646605 C653.776431,77.5106228 654.098074,69.7917226 649.595071,66.8971351 L649.595071,66.8971351 L649.595071,66.8971351 Z M105.053248,188.148192 C104.731605,188.469813 104.088318,188.791434 103.766675,189.113055 C104.088318,188.791434 104.409961,188.469813 105.053248,188.148192 L105.053248,188.148192 L105.053248,188.148192 Z M100.871887,191.364401 C100.550244,191.686022 99.9069576,192.007642 99.5853145,192.329263 C99.9069576,192.007642 100.228601,191.686022 100.871887,191.364401 L100.871887,191.364401 L100.871887,191.364401 Z M113.094326,180.429292 C112.772683,180.750913 112.129397,181.394155 111.807754,181.715776 C112.45104,181.072534 112.772683,180.750913 113.094326,180.429292 L113.094326,180.429292 L113.094326,180.429292 Z M109.234608,184.288742 C108.912965,184.610363 108.269679,185.253605 107.948036,185.575226 C108.269679,185.253605 108.591322,184.931984 109.234608,184.288742 L109.234608,184.288742 L109.234608,184.288742 Z M51.0172015,168.850942 C47.8007702,169.172563 44.2626958,168.529321 41.3679076,166.921217 C39.7596919,165.956354 38.1514763,164.34825 36.8649037,162.418525 C34.2917587,158.559075 33.0051861,153.413141 34.2917587,147.945587 C35.2566881,142.156412 39.4380488,137.65372 44.905982,135.402374 C46.5141977,134.759133 47.8007702,134.115891 50.3739153,133.79427 C51.9821309,133.79427 53.5903466,133.79427 54.8769191,134.115891 C55.1985623,134.115891 55.8418485,134.437512 56.1634917,134.437512 L56.4851348,134.437512 L57.1284211,134.437512 C57.4500642,134.437512 58.0933504,134.759133 58.4149936,135.080754 C58.7366367,135.080754 58.7366367,135.402374 59.0582798,135.402374 L59.0582798,135.402374 C59.379923,135.723995 59.7015661,135.723995 60.0232092,136.045616 C60.6664955,136.367237 60.9881386,136.688858 61.6314249,137.010479 C61.953068,137.332099 61.953068,137.332099 62.2747112,137.65372 C62.5963543,137.975341 62.9179974,138.296962 63.2396406,138.296962 C63.2396406,138.296962 63.2396406,138.296962 63.5612837,138.618583 C63.8829268,138.940204 63.8829268,138.940204 64.20457,139.261824 L64.5262131,139.583445 L65.1694994,140.226687 C65.1694994,140.548308 65.4911425,140.548308 65.4911425,140.869929 C65.8127856,141.51317 66.1344288,142.156412 66.4560719,142.799654 C67.4210013,145.051 68.3859307,147.302345 69.3508601,149.553691 L69.3508601,149.553691 L69.3508601,149.553691 L72.5672914,158.559075 C72.8889345,159.523937 73.2105777,160.4888 73.5322208,161.453663 L73.5322208,161.453663 C66.4560719,165.313113 59.0582798,168.2077 51.0172015,168.850942 L51.0172015,168.850942 L51.0172015,168.850942 Z M88.0061617,199.404922 C87.6845186,199.404922 87.3628755,199.726543 87.3628755,199.726543 C87.6845186,199.726543 87.6845186,199.726543 88.0061617,199.404922 L88.0061617,199.404922 L88.0061617,199.404922 Z M96.6905263,194.580609 C96.3688832,194.90223 96.0472401,194.90223 95.7255969,195.223851 C95.7255969,194.90223 96.0472401,194.580609 96.6905263,194.580609 L96.6905263,194.580609 L96.6905263,194.580609 Z M92.1875225,197.153576 C91.8658793,197.475197 91.5442362,197.475197 91.2225931,197.796818 C91.5442362,197.475197 91.8658793,197.153576 92.1875225,197.153576 L92.1875225,197.153576 L92.1875225,197.153576 Z" id="Shape"></path>
                    </g>
                </g>
            </g>
        </g>
    </g>
</svg>